<svg xmlns="http://www.w3.org/2000/svg" width="1200" height="630" viewBox="0 0 1200 630"><rect width="1200" height="630" fill="#fff8eb"/><circle cx="250" cy="315" r="150" fill="#fff8eb" stroke="#123B2A" stroke-width="12"/><path d="M130 370c55 65 185 65 240 0 0 65-50 105-120 105S130 435 130 370Z" fill="#123B2A"/><circle cx="250" cy="245" r="38" fill="#DCA64A"/><path d="M225 325c-52-38-62-75-49-98 42 7 68 34 83 82" fill="#6E8F67"/><path d="M285 325c52-38 62-75 49-98-42 7-68 34-83 82" fill="#9CAF88"/><text x="475" y="275" font-family="Georgia, serif" font-size="78" font-weight="700" fill="#123B2A">Washoku Plus</text><text x="478" y="350" font-family="Inter, Arial, sans-serif" font-size="34" fill="#315344">Balanced meals. Global flavors. Gentle health insights.</text><text x="478" y="410" font-family="Inter, Arial, sans-serif" font-size="24" fill="#B7714D">A holistic meal-planning app inspired by Washoku.</text></svg>